<svg xmlns="http://www.w3.org/2000/svg" viewBox="0 0 1440 500">
<defs>
<linearGradient id="bg" x1="0" y1="0" x2="1" y2="1">
<stop offset="0%" stop-color="#0D1117"/>
<stop offset="55%" stop-color="#111827"/>
<stop offset="100%" stop-color="#1F6FEB"/>
</linearGradient>
<radialGradient id="glow"><stop offset="0%" stop-color="#58A6FF" stop-opacity=".6"/><stop offset="100%" stop-color="#58A6FF" stop-opacity="0"/></radialGradient>
</defs>
<rect width="1440" height="500" fill="url(#bg)"/>
<g stroke="#58A6FF" opacity=".08"><line x1="0" y1="0" x2="1440" y2="0"/>
<line x1="0" y1="32" x2="1440" y2="32"/>
<line x1="0" y1="64" x2="1440" y2="64"/>
<line x1="0" y1="96" x2="1440" y2="96"/>
<line x1="0" y1="128" x2="1440" y2="128"/>
<line x1="0" y1="160" x2="1440" y2="160"/>
<line x1="0" y1="192" x2="1440" y2="192"/>
<line x1="0" y1="224" x2="1440" y2="224"/>
<line x1="0" y1="256" x2="1440" y2="256"/>
<line x1="0" y1="288" x2="1440" y2="288"/>
<line x1="0" y1="320" x2="1440" y2="320"/>
<line x1="0" y1="352" x2="1440" y2="352"/>
<line x1="0" y1="384" x2="1440" y2="384"/>
<line x1="0" y1="416" x2="1440" y2="416"/>
<line x1="0" y1="448" x2="1440" y2="448"/>
<line x1="0" y1="480" x2="1440" y2="480"/>
<line x1="0" y1="0" x2="0" y2="500"/>
<line x1="48" y1="0" x2="48" y2="500"/>
<line x1="96" y1="0" x2="96" y2="500"/>
<line x1="144" y1="0" x2="144" y2="500"/>
<line x1="192" y1="0" x2="192" y2="500"/>
<line x1="240" y1="0" x2="240" y2="500"/>
<line x1="288" y1="0" x2="288" y2="500"/>
<line x1="336" y1="0" x2="336" y2="500"/>
<line x1="384" y1="0" x2="384" y2="500"/>
<line x1="432" y1="0" x2="432" y2="500"/>
<line x1="480" y1="0" x2="480" y2="500"/>
<line x1="528" y1="0" x2="528" y2="500"/>
<line x1="576" y1="0" x2="576" y2="500"/>
<line x1="624" y1="0" x2="624" y2="500"/>
<line x1="672" y1="0" x2="672" y2="500"/>
<line x1="720" y1="0" x2="720" y2="500"/>
<line x1="768" y1="0" x2="768" y2="500"/>
<line x1="816" y1="0" x2="816" y2="500"/>
<line x1="864" y1="0" x2="864" y2="500"/>
<line x1="912" y1="0" x2="912" y2="500"/>
<line x1="960" y1="0" x2="960" y2="500"/>
<line x1="1008" y1="0" x2="1008" y2="500"/>
<line x1="1056" y1="0" x2="1056" y2="500"/>
<line x1="1104" y1="0" x2="1104" y2="500"/>
<line x1="1152" y1="0" x2="1152" y2="500"/>
<line x1="1200" y1="0" x2="1200" y2="500"/>
<line x1="1248" y1="0" x2="1248" y2="500"/>
<line x1="1296" y1="0" x2="1296" y2="500"/>
<line x1="1344" y1="0" x2="1344" y2="500"/>
<line x1="1392" y1="0" x2="1392" y2="500"/>
<line x1="1440" y1="0" x2="1440" y2="500"/></g>
<circle cx="1180" cy="110" r="170" fill="url(#glow)"/>
<rect x="90" y="85" width="180" height="180" rx="28" fill="#161B22" stroke="#58A6FF"/>
<text x="180" y="195" text-anchor="middle" font-size="76" fill="#58A6FF" font-family="Segoe UI" font-weight="700">NS</text>
<text x="320" y="165" fill="white" font-size="64" font-family="Segoe UI" font-weight="700">NIPUN SINGH</text>
<text x="320" y="215" fill="#79C0FF" font-size="28" font-family="Segoe UI">Building Intelligent Software Systems</text>
<text x="320" y="255" fill="#E6EDF3" font-size="19" font-family="Segoe UI">Backend Engineering • Artificial Intelligence • Machine Learning • Cloud</text>
<rect x="320" y="300" width="240" height="48" rx="24" fill="#161B22" stroke="#58A6FF"/>
<text x="440" y="331" text-anchor="middle" fill="#58A6FF" font-size="18">Flagship Project • PKOS</text>
<g stroke="#79C0FF" opacity=".4">
<path d="M980 280 L1100 220 L1220 270 L1320 210"/>
<circle cx="980" cy="280" r="5" fill="#79C0FF"/>
<circle cx="1100" cy="220" r="5" fill="#79C0FF"/>
<circle cx="1220" cy="270" r="5" fill="#79C0FF"/>
<circle cx="1320" cy="210" r="5" fill="#79C0FF"/>
</g>
</svg>