<svg xmlns="http://www.w3.org/2000/svg" width="1280" height="360" viewBox="0 0 1280 360">
<defs>
<linearGradient id="g" x1="0" y1="0" x2="1" y2="1">
<stop offset="0%" stop-color="#0D1117"/>
<stop offset="100%" stop-color="#1F6FEB"/>
</linearGradient>
</defs>
<rect width="1280" height="360" fill="url(#g)"/>
<g stroke="#58A6FF" opacity=".12">
<line x1="0" y1="0" x2="1280" y2="0"/>
<line x1="0" y1="30" x2="1280" y2="30"/>
<line x1="0" y1="60" x2="1280" y2="60"/>
<line x1="0" y1="90" x2="1280" y2="90"/>
<line x1="0" y1="120" x2="1280" y2="120"/>
<line x1="0" y1="150" x2="1280" y2="150"/>
<line x1="0" y1="180" x2="1280" y2="180"/>
<line x1="0" y1="210" x2="1280" y2="210"/>
<line x1="0" y1="240" x2="1280" y2="240"/>
<line x1="0" y1="270" x2="1280" y2="270"/>
<line x1="0" y1="300" x2="1280" y2="300"/>
<line x1="0" y1="330" x2="1280" y2="330"/>
<line x1="0" y1="360" x2="1280" y2="360"/>
<line x1="0" y1="0" x2="0" y2="360"/>
<line x1="40" y1="0" x2="40" y2="360"/>
<line x1="80" y1="0" x2="80" y2="360"/>
<line x1="120" y1="0" x2="120" y2="360"/>
<line x1="160" y1="0" x2="160" y2="360"/>
<line x1="200" y1="0" x2="200" y2="360"/>
<line x1="240" y1="0" x2="240" y2="360"/>
<line x1="280" y1="0" x2="280" y2="360"/>
<line x1="320" y1="0" x2="320" y2="360"/>
<line x1="360" y1="0" x2="360" y2="360"/>
<line x1="400" y1="0" x2="400" y2="360"/>
<line x1="440" y1="0" x2="440" y2="360"/>
<line x1="480" y1="0" x2="480" y2="360"/>
<line x1="520" y1="0" x2="520" y2="360"/>
<line x1="560" y1="0" x2="560" y2="360"/>
<line x1="600" y1="0" x2="600" y2="360"/>
<line x1="640" y1="0" x2="640" y2="360"/>
<line x1="680" y1="0" x2="680" y2="360"/>
<line x1="720" y1="0" x2="720" y2="360"/>
<line x1="760" y1="0" x2="760" y2="360"/>
<line x1="800" y1="0" x2="800" y2="360"/>
<line x1="840" y1="0" x2="840" y2="360"/>
<line x1="880" y1="0" x2="880" y2="360"/>
<line x1="920" y1="0" x2="920" y2="360"/>
<line x1="960" y1="0" x2="960" y2="360"/>
<line x1="1000" y1="0" x2="1000" y2="360"/>
<line x1="1040" y1="0" x2="1040" y2="360"/>
<line x1="1080" y1="0" x2="1080" y2="360"/>
<line x1="1120" y1="0" x2="1120" y2="360"/>
<line x1="1160" y1="0" x2="1160" y2="360"/>
<line x1="1200" y1="0" x2="1200" y2="360"/>
<line x1="1240" y1="0" x2="1240" y2="360"/>
<line x1="1280" y1="0" x2="1280" y2="360"/>
</g>
<circle cx="1080" cy="80" r="90" fill="#58A6FF" opacity=".18"/>
<text x="90" y="150" fill="white" font-size="58" font-family="Segoe UI" font-weight="700">NIPUN SINGH</text>
<text x="90" y="200" fill="#B6D7FF" font-size="26" font-family="Segoe UI">AI SOFTWARE ENGINEER</text>
<text x="90" y="245" fill="#E6EDF3" font-size="18" font-family="Segoe UI">Spring Boot • Next.js • Machine Learning • Cloud</text>
</svg>